<svg width="28" height="33" viewBox="0 0 28 33" fill="none" xmlns="http://www.w3.org/2000/svg">
<path d="M13.6667 0C6.11583 0 0 0.854167 0 6.83333V23.9167C0 25.42 0.66625 26.7696 1.70833 27.7092V30.75C1.70833 31.6896 2.47708 32.4583 3.41667 32.4583H5.125C6.06458 32.4583 6.83333 31.6896 6.83333 30.75V29.0417H20.5V30.75C20.5 31.6896 21.2688 32.4583 22.2083 32.4583H23.9167C24.8563 32.4583 25.625 31.6896 25.625 30.75V27.7092C26.6671 26.7696 27.3333 25.42 27.3333 23.9167V6.83333C27.3333 0.854167 21.2175 0 13.6667 0ZM23.3358 5.10792H3.9975C4.93708 4.2025 7.36292 3.41667 13.6667 3.41667C19.9704 3.41667 22.3963 4.2025 23.3358 5.10792ZM23.9167 8.52458V13.6667H3.41667V8.52458H23.9167ZM23.3358 25.1637L22.8404 25.625H4.49292L3.9975 25.1637C3.77542 24.9758 3.41667 24.5487 3.41667 23.9167V17.0833H23.9167V23.9167C23.9167 24.5487 23.5579 24.9758 23.3358 25.1637Z" fill="black"/>
<path d="M7.6875 23.9167C9.10273 23.9167 10.25 22.7694 10.25 21.3542C10.25 19.9389 9.10273 18.7917 7.6875 18.7917C6.27227 18.7917 5.125 19.9389 5.125 21.3542C5.125 22.7694 6.27227 23.9167 7.6875 23.9167Z" fill="black"/>
<path d="M19.6458 23.9167C21.0611 23.9167 22.2083 22.7694 22.2083 21.3542C22.2083 19.9389 21.0611 18.7917 19.6458 18.7917C18.2306 18.7917 17.0833 19.9389 17.0833 21.3542C17.0833 22.7694 18.2306 23.9167 19.6458 23.9167Z" fill="black"/>
</svg>
